<svg width="24" height="24" viewBox="0 0 24 24" fill="none" xmlns="http://www.w3.org/2000/svg">
<path opacity="0.4" d="M5.40705 8.1949C4.96235 8.5224 4.86736 9.1484 5.19488 9.5931C5.44927 9.9385 5.70372 10.2668 5.92689 10.5528C6.3724 11.1236 6.98572 11.8882 7.65208 12.6556C8.31412 13.4181 9.04815 14.2064 9.73344 14.8119C10.0749 15.1136 10.4279 15.3911 10.7721 15.5986C11.0888 15.7895 11.524 16 12.0001 16C12.4762 16 12.9115 15.7895 13.2282 15.5986C13.5724 15.3911 13.9253 15.1136 14.2668 14.8119C14.9521 14.2064 15.6861 13.4181 16.3482 12.6556C17.0145 11.8882 17.6278 11.1236 18.0734 10.5528C18.2965 10.2668 18.551 9.9385 18.8054 9.5931C19.1329 9.1484 19.0379 8.5224 18.5932 8.1949C18.4144 8.0632 18.2064 7.9998 18.0002 8H12.0001H6.00007C5.79387 7.9998 5.58581 8.0632 5.40705 8.1949Z" fill="#A8A8A8"/>
<path d="M5.40705 8.1949C4.96235 8.5224 4.86736 9.1484 5.19488 9.5931C5.44927 9.9385 5.70372 10.2668 5.92689 10.5528C6.3724 11.1236 6.98572 11.8882 7.65208 12.6556C8.31412 13.4181 9.04815 14.2064 9.73344 14.8119C10.0749 15.1136 10.4279 15.3911 10.7721 15.5986C11.0888 15.7895 11.524 16 12.0001 16C12.4762 16 12.9115 15.7895 13.2282 15.5986C13.5724 15.3911 13.9253 15.1136 14.2668 14.8119C14.7967 14.3437 15.3557 13.7662 15.8881 13.1759L10.7122 8H6.00007C5.79387 7.9998 5.58581 8.0632 5.40705 8.1949Z" fill="#A8A8A8"/>
</svg>
