<svg width="24" height="24" viewBox="0 0 24 24" fill="none" xmlns="http://www.w3.org/2000/svg">
<g opacity="0.4">
<path d="M8.75 17.1838C8.75 17.3864 8.75 17.4877 8.7977 17.5618C8.84539 17.636 8.94451 17.6811 9.14275 17.7715C9.36402 17.8723 9.6448 18.0103 10.0237 18.1987L10.3227 18.3473C10.7359 18.5528 10.9425 18.6555 11.0425 18.5737C11.1425 18.4919 11.0793 18.2563 10.9529 17.7852C10.6351 16.6004 10.6536 15.2596 11.2758 13.805C11.8512 12.4598 12.8427 11.3933 14.0418 10.6924C14.1452 10.6319 14.197 10.6017 14.2235 10.5554C14.25 10.5092 14.25 10.4517 14.25 10.3367V4.07979C14.25 3.89894 14.25 3.80851 14.205 3.73591C14.16 3.66332 14.0791 3.62306 13.9171 3.54254L11.1426 2.16294C10.4736 1.83029 9.92553 1.55778 9.45232 1.3752C9.16028 1.26252 9.01425 1.20618 8.88544 1.29069L8.87522 1.2977C8.75 1.38746 8.75 1.55645 8.75 1.89443V17.1838Z" fill="white"/>
<path d="M22.75 11.0978C22.75 11.5507 22.75 11.7771 22.6333 11.8305C22.5166 11.884 22.3358 11.728 21.9743 11.4161C20.7405 10.3517 19.1388 9.75039 17.5015 9.75039C17.0827 9.75039 16.6662 9.78973 16.2576 9.8661C16.0155 9.91135 15.8945 9.93398 15.8222 9.874C15.75 9.81402 15.75 9.69616 15.75 9.46045V4.34003C15.75 4.2455 15.8268 4.16896 15.9214 4.16896L18.0529 4.16895C18.9506 4.16892 19.7008 4.1689 20.2966 4.25078C20.9275 4.33746 21.4955 4.52836 21.9503 4.99317C22.4028 5.45569 22.5866 6.02959 22.6704 6.66646C22.7501 7.2722 22.75 8.03606 22.75 8.95602V11.0978Z" fill="white"/>
<path d="M7.25 1.95769C7.25 1.63015 7.25 1.46639 7.13415 1.37631C7.1208 1.36593 7.10282 1.35442 7.08779 1.34665C6.95744 1.27925 6.81999 1.34273 6.54509 1.4697C6.08426 1.68253 5.55431 1.98996 4.90724 2.36534L3.6187 3.11282C3.15062 3.38433 2.75247 3.61529 2.44084 3.84032C2.10848 4.08031 1.82705 4.34582 1.61998 4.7093C1.4134 5.07191 1.32728 5.45055 1.28746 5.86084C1.24997 6.24722 1.24999 6.71355 1.25 7.26469V15.5038C1.24999 16.2329 1.24998 16.8358 1.29639 17.3073C1.34327 17.7834 1.44676 18.2617 1.75833 18.6482C2.09802 19.0697 2.57688 19.3562 3.11024 19.4514C3.60335 19.5394 4.0707 19.3914 4.5015 19.1969C4.92742 19.0046 5.49919 18.6729 6.11822 18.3138C6.40134 18.1496 6.6546 18.0027 6.89091 17.8806C7.07195 17.787 7.16247 17.7402 7.20624 17.6684C7.25 17.5965 7.25 17.5019 7.25 17.3128V1.95769Z" fill="white"/>
</g>
<path fill-rule="evenodd" clip-rule="evenodd" d="M17.5005 11.25C15.4459 11.25 13.4801 12.4635 12.654 14.3949C11.881 16.202 12.3099 17.7499 13.1612 19.0367C13.8457 20.0712 14.8445 20.9943 15.708 21.7923C15.8705 21.9424 16.0281 22.0882 16.178 22.2294L16.1797 22.2309C16.5378 22.5663 17.0118 22.75 17.5005 22.75C17.9893 22.75 18.4633 22.5663 18.8214 22.2309C18.9636 22.0978 19.1125 21.9606 19.2658 21.8195C20.138 21.0164 21.1499 20.0846 21.8415 19.037C22.6917 17.749 23.1191 16.1998 22.3471 14.3949C21.521 12.4635 19.5552 11.25 17.5005 11.25ZM17.4911 14.5C16.3914 14.5 15.5 15.3954 15.5 16.5C15.5 17.6046 16.3914 18.5 17.4911 18.5H17.5089C18.6086 18.5 19.5 17.6046 19.5 16.5C19.5 15.3954 18.6086 14.5 17.5089 14.5H17.4911Z" fill="white"/>
</svg>
