<svg width="24" height="24" viewBox="0 0 24 24" fill="none" xmlns="http://www.w3.org/2000/svg">
<path d="M10.4553 4.75H12.5448C12.9776 4.74995 13.3744 4.74991 13.6972 4.79331C14.0527 4.8411 14.4284 4.95355 14.7375 5.26257C15.0465 5.57159 15.1589 5.94732 15.2067 6.3028C15.2501 6.62561 15.2501 7.02244 15.25 7.45525V9.54475C15.2501 9.97757 15.2501 10.3744 15.2067 10.6972C15.1589 11.0527 15.0465 11.4284 14.7375 11.7374C14.4284 12.0465 14.0527 12.1589 13.6972 12.2067C13.3744 12.2501 12.9776 12.2501 12.5448 12.25H10.4553C10.0225 12.2501 9.6256 12.2501 9.30279 12.2067C8.94731 12.1589 8.57159 12.0465 8.26256 11.7374C7.95354 11.4284 7.84109 11.0527 7.7933 10.6972C7.7499 10.3744 7.74994 9.97757 7.75 9.54475V7.50001C7.74995 7.06719 7.7499 6.62561 7.7933 6.3028C7.84109 5.94732 7.95354 5.57159 8.26256 5.26257C8.57159 4.95355 8.94731 4.8411 9.30279 4.79331C9.6256 4.74991 10.0225 4.74995 10.4553 4.75Z" fill="#FFCE00"/>
<path fill-rule="evenodd" clip-rule="evenodd" d="M6.5 21.25C6.5 20.6977 6.94771 20.25 7.5 20.25H15.5C16.0523 20.25 16.5 20.6977 16.5 21.25C16.5 21.8023 16.0523 22.25 15.5 22.25H7.5C6.94771 22.25 6.5 21.8023 6.5 21.25Z" fill="#FFCE00"/>
<path d="M19.4418 14.9991C19.584 14.8406 19.787 14.75 20 14.75C20.213 14.75 20.4159 14.8406 20.5582 14.9991L20.5615 15.0029C20.6087 15.0574 20.7393 15.208 20.8118 15.2955C20.9596 15.4739 21.1585 15.7228 21.3589 16.0015C21.5573 16.2774 21.7682 16.5975 21.9325 16.9166C22.0842 17.2116 22.25 17.6053 22.25 18C22.25 19.2426 21.2426 20.25 20 20.25C18.7573 20.25 17.75 19.2426 17.75 18C17.75 17.6053 17.9157 17.2116 18.0675 16.9166C18.2318 16.5975 18.4426 16.2774 18.6411 16.0015C18.8415 15.7228 19.0403 15.4739 19.1882 15.2955C19.2607 15.208 19.3913 15.0573 19.4385 15.0029L19.4418 14.9991Z" fill="#FFCE00"/>
<path opacity="0.4" d="M14.2858 1.75001L9.03161 1.75C8.46318 1.74997 7.96283 1.74994 7.54707 1.79396C7.09693 1.84161 6.6606 1.94743 6.24856 2.21249C5.83652 2.47756 5.56163 2.82928 5.33482 3.21711C5.12532 3.57533 4.92215 4.02792 4.69131 4.54214L1.83335 10.9076C1.61706 11.3893 1.83623 11.9534 2.32288 12.1675C2.80954 12.3816 3.37938 12.1646 3.59567 11.6829L6.43471 5.35962C6.69013 4.79075 6.85218 4.43291 7.00386 4.17356C7.14393 3.93404 7.2322 3.85647 7.29945 3.81322C7.36669 3.76996 7.47415 3.72161 7.75214 3.69218C8.05317 3.66031 8.44932 3.65905 9.07819 3.65905H10.5005V6C10.5005 6.55229 10.9482 7 11.5005 7C12.0528 7 12.5005 6.55229 12.5005 6V3.65905H14.2858C14.8183 3.65905 15.25 3.2317 15.25 2.70453C15.25 2.17736 14.8183 1.75001 14.2858 1.75001Z" fill="#FFCE00"/>
<path opacity="0.4" fill-rule="evenodd" clip-rule="evenodd" d="M9.25 13.1992V21.4997C9.25 21.9139 9.58578 22.2497 10 22.2497H13C13.4142 22.2497 13.75 21.9139 13.75 21.4997V13.2487C13.6116 13.2497 13.4691 13.2497 13.3233 13.2497H10.6766C10.1431 13.2498 9.65278 13.2498 9.25 13.1992Z" fill="#FFCE00"/>
<path opacity="0.4" fill-rule="evenodd" clip-rule="evenodd" d="M16.7383 10.75H17.7501V12.5C17.7501 12.9142 18.0859 13.25 18.5001 13.25H21.5001C21.9143 13.25 22.2501 12.9142 22.2501 12.5V10C22.2501 7.92893 20.5712 6.25 18.5001 6.25H16.7383C16.7502 6.53557 16.7501 6.84791 16.7501 7.17664V9.82334C16.7501 10.1521 16.7502 10.4644 16.7383 10.75Z" fill="#FFCE00"/>
</svg>
