<svg width="24" height="24" viewBox="0 0 24 24" fill="none" xmlns="http://www.w3.org/2000/svg">
<path opacity="0.4" d="M18.5864 21.8579C20.3116 22.0481 21.6255 20.6237 21.6255 19.0349V17.5648C21.6255 16.4673 20.759 15.6876 19.8517 15.5226C19.3219 15.4262 18.7443 15.2651 18.2436 15.1055C17.1815 14.7669 15.9612 14.9934 15.1255 15.8291L12.8614 18.0923C9.90348 16.5261 7.47318 14.0962 5.90722 11.1381L8.2294 8.81788C9.01814 8.02914 9.27868 6.8773 8.96823 5.83684C8.80445 5.28807 8.62582 4.64648 8.50932 4.11068C8.31418 3.21355 7.51282 2.375 6.43564 2.375H4.96559C3.3768 2.375 1.9524 3.68886 2.1426 5.41411C3.09564 14.0495 9.951 20.9048 18.5864 21.8579Z" fill="#0043C9"/>
</svg>
