<svg width="7" height="12" viewBox="0 0 7 12" fill="none" xmlns="http://www.w3.org/2000/svg">
<path opacity="0.4" d="M6.50425 0.339209C6.23133 -0.0313741 5.70967 -0.110533 5.33908 0.162401C5.05125 0.374392 4.77767 0.586434 4.53933 0.772409C4.06367 1.14367 3.4265 1.65477 2.787 2.21007C2.15158 2.76177 1.49468 3.37346 0.990092 3.94453C0.738642 4.22908 0.5074 4.52325 0.3345 4.81008C0.175383 5.074 0 5.43667 0 5.83342C0 6.23017 0.175383 6.59292 0.3345 6.85683C0.5074 7.14367 0.738642 7.43775 0.990092 7.72233C1.49468 8.29342 2.15158 8.90508 2.787 9.45683C3.4265 10.0121 4.06367 10.5232 4.53933 10.8945C4.77767 11.0804 5.05125 11.2925 5.33908 11.5045C5.70967 11.7774 6.23133 11.6983 6.50425 11.3277C6.614 11.1787 6.66683 11.0053 6.66667 10.8335V5.83342V0.833393C6.66683 0.661559 6.614 0.488176 6.50425 0.339209Z" fill="#A8A8A8"/>
<path d="M6.50425 0.339209C6.23133 -0.0313741 5.70967 -0.110533 5.33908 0.162401C5.05125 0.374392 4.77767 0.586434 4.53933 0.772409C4.06367 1.14367 3.4265 1.65477 2.787 2.21007C2.15158 2.76177 1.49468 3.37346 0.990092 3.94453C0.738642 4.22908 0.5074 4.52325 0.3345 4.81008C0.175383 5.074 0 5.43667 0 5.83342C0 6.23017 0.175383 6.59292 0.3345 6.85683C0.5074 7.14367 0.738642 7.43775 0.990092 7.72233C1.38025 8.16392 1.8615 8.62975 2.35342 9.07342L6.66667 4.76017V0.833393C6.66683 0.661559 6.614 0.488176 6.50425 0.339209Z" fill="#A8A8A8"/>
</svg>
